{
  "accessors": [
    {
      "bufferView": 2,
      "componentType": 5126,
      "count": 65532,
      "max": [
        19.91995620727539,
        -41.39884948730469,
        19.356679916381836
      ],
      "min": [
        -19.91995620727539,
        -134.936279296875,
        -19.919954299926758
      ],
      "type": "VEC3"
    },
    {
      "bufferView": 2,
      "byteOffset": 786384,
      "componentType": 5126,
      "count": 65532,
      "max": [
        1.0,
        1.0,
        1.0
      ],
      "min": [
        -1.0,
        -1.0,
        -1.0
      ],
      "type": "VEC3"
    },
    {
      "bufferView": 1,
      "componentType": 5126,
      "count": 65532,
      "max": [
        0.9989710450172424,
        0.860828697681427
      ],
      "min": [
        0.0,
        4.100848855159711e-06
      ],
      "type": "VEC2"
    },
    {
      "bufferView": 0,
      "componentType": 5125,
      "count": 311415,
      "type": "SCALAR"
    },
    {
      "bufferView": 2,
      "byteOffset": 1572768,
      "componentType": 5126,
      "count": 54322,
      "max": [
        19.213537216186523,
        0.0,
        19.21345329284668
      ],
      "min": [
        -19.213542938232422,
        -134.6204833984375,
        -19.239316940307617
      ],
      "type": "VEC3"
    },
    {
      "bufferView": 2,
      "byteOffset": 2224632,
      "componentType": 5126,
      "count": 54322,
      "max": [
        1.0,
        1.0,
        1.0
      ],
      "min": [
        -1.0,
        -1.0,
        -1.0
      ],
      "type": "VEC3"
    },
    {
      "bufferView": 1,
      "byteOffset": 524256,
      "componentType": 5126,
      "count": 54322,
      "max": [
        0.9874870181083679,
        0.9962429404258728
      ],
      "min": [
        0.0,
        9.605030754755717e-06
      ],
      "type": "VEC2"
    },
    {
      "bufferView": 0,
      "byteOffset": 1245660,
      "componentType": 5125,
      "count": 270918,
      "type": "SCALAR"
    },
    {
      "bufferView": 2,
      "byteOffset": 2876496,
      "componentType": 5126,
      "count": 4571,
      "max": [
        1.371878981590271,
        1.0116909742355347,
        0.8249999284744263
      ],
      "min": [
        0.2885749936103821,
        -0.07161304354667664,
        -2.9549999237060547
      ],
      "type": "VEC3"
    },
    {
      "bufferView": 2,
      "byteOffset": 2931348,
      "componentType": 5126,
      "count": 4571,
      "max": [
        1.0,
        1.0,
        1.0
      ],
      "min": [
        -1.0,
        -1.0,
        -1.0
      ],
      "type": "VEC3"
    },
    {
      "bufferView": 1,
      "byteOffset": 958832,
      "componentType": 5126,
      "count": 4571,
      "max": [
        0.9054279923439026,
        0.3971939980983734
      ],
      "min": [
        0.3142479956150055,
        0.13658800721168518
      ],
      "type": "VEC2"
    },
    {
      "bufferView": 0,
      "byteOffset": 2329332,
      "componentType": 5125,
      "count": 13068,
      "type": "SCALAR"
    },
    {
      "bufferView": 2,
      "byteOffset": 2986200,
      "componentType": 5126,
      "count": 903,
      "max": [
        2.60821795463562,
        2.6433908939361572,
        2.200000047683716
      ],
      "min": [
        2.35821795463562,
        2.3933908939361572,
        -2.200000047683716
      ],
      "type": "VEC3"
    },
    {
      "bufferView": 2,
      "byteOffset": 2997036,
      "componentType": 5126,
      "count": 903,
      "max": [
        0.9914477467536926,
        0.9914464950561523,
        1.0
      ],
      "min": [
        -0.9914461374282837,
        -0.9914454817771912,
        -1.0
      ],
      "type": "VEC3"
    },
    {
      "bufferView": 1,
      "byteOffset": 995400,
      "componentType": 5126,
      "count": 903,
      "max": [
        0.9226719737052917,
        0.9595850110054016
      ],
      "min": [
        0.707735002040863,
        0.924543023109436
      ],
      "type": "VEC2"
    },
    {
      "bufferView": 0,
      "byteOffset": 2381604,
      "componentType": 5125,
      "count": 1428,
      "type": "SCALAR"
    },
    {
      "bufferView": 2,
      "byteOffset": 3007872,
      "componentType": 5126,
      "count": 101,
      "max": [
        2.1725189685821533,
        1.39594304561615,
        0.2545880079269409
      ],
      "min": [
        1.283926010131836,
        0.8861899971961975,
        -0.2551650106906891
      ],
      "type": "VEC3"
    },
    {
      "bufferView": 2,
      "byteOffset": 3009084,
      "componentType": 5126,
      "count": 101,
      "max": [
        1.0,
        0.9956116676330566,
        0.9956158995628357
      ],
      "min": [
        -0.9999999403953552,
        -0.9956120252609253,
        -0.9956113696098328
      ],
      "type": "VEC3"
    },
    {
      "bufferView": 1,
      "byteOffset": 1002624,
      "componentType": 5126,
      "count": 101,
      "max": [
        0.46208399534225464,
        0.5906000137329102
      ],
      "min": [
        0.0,
        0.018850000575184822
      ],
      "type": "VEC2"
    },
    {
      "bufferView": 0,
      "byteOffset": 2387316,
      "componentType": 5125,
      "count": 276,
      "type": "SCALAR"
    },
    {
      "bufferView": 2,
      "byteOffset": 3010296,
      "componentType": 5126,
      "count": 50415,
      "max": [
        2.785022020339966,
        3.146678924560547,
        2.2007761001586914
      ],
      "min": [
        -2.784985065460205,
        -2.552000045776367,
        -2.200000047683716
      ],
      "type": "VEC3"
    },
    {
      "bufferView": 2,
      "byteOffset": 3615276,
      "componentType": 5126,
      "count": 50415,
      "max": [
        1.0,
        1.0,
        1.0
      ],
      "min": [
        -1.0,
        -1.0,
        -1.0
      ],
      "type": "VEC3"
    },
    {
      "bufferView": 1,
      "byteOffset": 1003432,
      "componentType": 5126,
      "count": 50415,
      "max": [
        0.9998369812965393,
        0.9996479749679565
      ],
      "min": [
        0.0,
        -0.0
      ],
      "type": "VEC2"
    },
    {
      "bufferView": 0,
      "byteOffset": 2388420,
      "componentType": 5125,
      "count": 164865,
      "type": "SCALAR"
    },
    {
      "bufferView": 2,
      "byteOffset": 4220256,
      "componentType": 5126,
      "count": 6444,
      "max": [
        2.8128368854522705,
        4.855246067047119,
        0.8780410289764404
      ],
      "min": [
        -2.7848060131073,
        0.8192049860954285,
        -0.8499829769134521
      ],
      "type": "VEC3"
    },
    {
      "bufferView": 2,
      "byteOffset": 4297584,
      "componentType": 5126,
      "count": 6444,
      "max": [
        1.0,
        1.0,
        1.0
      ],
      "min": [
        -1.0,
        -1.0,
        -1.0
      ],
      "type": "VEC3"
    },
    {
      "bufferView": 1,
      "byteOffset": 1406752,
      "componentType": 5126,
      "count": 6444,
      "max": [
        0.9996309876441956,
        0.8908050060272217
      ],
      "min": [
        0.0,
        9.999999974752427e-07
      ],
      "type": "VEC2"
    },
    {
      "bufferView": 0,
      "byteOffset": 3047880,
      "componentType": 5125,
      "count": 20136,
      "type": "SCALAR"
    },
    {
      "bufferView": 2,
      "byteOffset": 4374912,
      "componentType": 5126,
      "count": 6773,
      "max": [
        0.800000011920929,
        0.7980474233627319,
        0.7980480194091797
      ],
      "min": [
        -0.8000001311302185,
        -0.7980475425720215,
        -0.7980480194091797
      ],
      "type": "VEC3"
    },
    {
      "bufferView": 2,
      "byteOffset": 4456188,
      "componentType": 5126,
      "count": 6773,
      "max": [
        1.0,
        1.0,
        0.9999977350234985
      ],
      "min": [
        -1.0,
        -1.0,
        -0.9999991059303284
      ],
      "type": "VEC3"
    },
    {
      "bufferView": 1,
      "byteOffset": 1458304,
      "componentType": 5126,
      "count": 6773,
      "max": [
        1.0,
        0.9246770143508911
      ],
      "min": [
        0.4625680148601532,
        0.533282995223999
      ],
      "type": "VEC2"
    },
    {
      "bufferView": 0,
      "byteOffset": 3128424,
      "componentType": 5125,
      "count": 20334,
      "type": "SCALAR"
    },
    {
      "bufferView": 3,
      "componentType": 5126,
      "count": 58,
      "max": [
        1.9166666269302368
      ],
      "min": [
        0.0
      ],
      "type": "SCALAR"
    },
    {
      "bufferView": 4,
      "componentType": 5126,
      "count": 58,
      "max": [
        -1.862645149230957e-08,
        180.18661499023438,
        -0.00047756382264196873
      ],
      "min": [
        -1.862645149230957e-08,
        145.11175537109375,
        -0.00047756382264196873
      ],
      "type": "VEC3"
    },
    {
      "bufferView": 3,
      "byteOffset": 232,
      "componentType": 5126,
      "count": 38,
      "max": [
        3.75
      ],
      "min": [
        2.5
      ],
      "type": "SCALAR"
    },
    {
      "bufferView": 4,
      "byteOffset": 696,
      "componentType": 5126,
      "count": 38,
      "max": [
        -5.073655128479004,
        -0.847944438457489,
        -0.8649930953979492
      ],
      "min": [
        -5.463497638702393,
        -0.847944438457489,
        -0.8649930953979492
      ],
      "type": "VEC3"
    },
    {
      "bufferView": 3,
      "byteOffset": 384,
      "componentType": 5126,
      "count": 38,
      "max": [
        3.75
      ],
      "min": [
        2.5
      ],
      "type": "SCALAR"
    },
    {
      "bufferView": 5,
      "componentType": 5126,
      "count": 38,
      "max": [
        1.0,
        0.0,
        0.0,
        1.0
      ],
      "min": [
        0.0,
        0.0,
        0.0,
        6.123234262925839e-17
      ],
      "type": "VEC4"
    },
    {
      "bufferView": 3,
      "byteOffset": 536,
      "componentType": 5126,
      "count": 50,
      "max": [
        2.5
      ],
      "min": [
        0.8333333134651184
      ],
      "type": "SCALAR"
    },
    {
      "bufferView": 5,
      "byteOffset": 608,
      "componentType": 5126,
      "count": 50,
      "max": [
        0.0,
        0.0,
        0.867210865020752,
        1.0
      ],
      "min": [
        0.0,
        0.0,
        -0.8647587299346924,
        -0.4990183711051941
      ],
      "type": "VEC4"
    }
  ],
  "animations": [
    {
      "channels": [
        {
          "sampler": 0,
          "target": {
            "node": 4,
            "path": "translation"
          }
        },
        {
          "sampler": 1,
          "target": {
            "node": 19,
            "path": "translation"
          }
        },
        {
          "sampler": 2,
          "target": {
            "node": 19,
            "path": "rotation"
          }
        },
        {
          "sampler": 3,
          "target": {
            "node": 16,
            "path": "rotation"
          }
        }
      ],
      "name": "Take 001",
      "samplers": [
        {
          "input": 32,
          "interpolation": "LINEAR",
          "output": 33
        },
        {
          "input": 34,
          "interpolation": "LINEAR",
          "output": 35
        },
        {
          "input": 36,
          "interpolation": "LINEAR",
          "output": 37
        },
        {
          "input": 38,
          "interpolation": "LINEAR",
          "output": 39
        }
      ]
    }
  ],
  "asset": {
    "extras": {
      "author": "R-E-A-L.iT (https://sketchfab.com/amandadeblois)",
      "license": "COPYRIGHT TO R-E-A-L.iT",
      "source": "https://sketchfab.com/3d-models/blk2go-with-adapter-01-a38b004499cd4630bc654996b6394576",
      "title": "BLK2GO_with_adapter_01"
    },
    "generator": "Sketchfab-17.8.0",
    "version": "2.0"
  },
  "bufferViews": [
    {
      "buffer": 0,
      "byteLength": 3209760,
      "name": "floatBufferViews",
      "target": 34963
    },
    {
      "buffer": 0,
      "byteLength": 1512488,
      "byteOffset": 3209760,
      "byteStride": 8,
      "name": "floatBufferViews",
      "target": 34962
    },
    {
      "buffer": 0,
      "byteLength": 4537464,
      "byteOffset": 4722248,
      "byteStride": 12,
      "name": "floatBufferViews",
      "target": 34962
    },
    {
      "buffer": 0,
      "byteLength": 736,
      "byteOffset": 9259712,
      "name": "floatBufferViews"
    },
    {
      "buffer": 0,
      "byteLength": 1152,
      "byteOffset": 9260448,
      "byteStride": 12,
      "name": "floatBufferViews"
    },
    {
      "buffer": 0,
      "byteLength": 1408,
      "byteOffset": 9261600,
      "byteStride": 16,
      "name": "floatBufferViews"
    }
  ],
  "buffers": [
    {
      "byteLength": 9263008,
      "uri": "scene.bin"
    }
  ],
  "materials": [
    {
      "doubleSided": true,
      "name": "standardSurface2",
      "pbrMetallicRoughness": {
        "metallicFactor": 0.0,
        "roughnessFactor": 0.6
      }
    },
    {
      "doubleSided": true,
      "name": "aiStandardSurface1",
      "pbrMetallicRoughness": {
        "metallicFactor": 0.0,
        "roughnessFactor": 0.6
      }
    }
  ],
  "meshes": [
    {
      "name": "BLK2GO1_pasted__Ring_standardSurface2_0",
      "primitives": [
        {
          "attributes": {
            "NORMAL": 1,
            "POSITION": 0,
            "TEXCOORD_0": 2
          },
          "indices": 3,
          "material": 0,
          "mode": 4
        }
      ]
    },
    {
      "name": "BLK2GO1_pasted__Ring_standardSurface2_0",
      "primitives": [
        {
          "attributes": {
            "NORMAL": 5,
            "POSITION": 4,
            "TEXCOORD_0": 6
          },
          "indices": 7,
          "material": 0,
          "mode": 4
        }
      ]
    },
    {
      "name": "BLK2GO_Adapter_textured:Body5_aiStandardSurface1_0",
      "primitives": [
        {
          "attributes": {
            "NORMAL": 9,
            "POSITION": 8,
            "TEXCOORD_0": 10
          },
          "indices": 11,
          "material": 1,
          "mode": 4
        }
      ]
    },
    {
      "name": "BLK2GO_Adapter_textured:Body5polySurface1_aiStandardSurface1_0",
      "primitives": [
        {
          "attributes": {
            "NORMAL": 13,
            "POSITION": 12,
            "TEXCOORD_0": 14
          },
          "indices": 15,
          "material": 1,
          "mode": 4
        }
      ]
    },
    {
      "name": "BLK2GO_Adapter_textured:Body5polySurface4_aiStandardSurface1_0",
      "primitives": [
        {
          "attributes": {
            "NORMAL": 17,
            "POSITION": 16,
            "TEXCOORD_0": 18
          },
          "indices": 19,
          "material": 1,
          "mode": 4
        }
      ]
    },
    {
      "name": "BLK2GO_Adapter_textured:Body5polySurface3_aiStandardSurface1_0",
      "primitives": [
        {
          "attributes": {
            "NORMAL": 21,
            "POSITION": 20,
            "TEXCOORD_0": 22
          },
          "indices": 23,
          "material": 1,
          "mode": 4
        }
      ]
    },
    {
      "name": "BLK2GO_Adapter_textured:Body5polySurface5_aiStandardSurface1_0",
      "primitives": [
        {
          "attributes": {
            "NORMAL": 25,
            "POSITION": 24,
            "TEXCOORD_0": 26
          },
          "indices": 27,
          "material": 1,
          "mode": 4
        }
      ]
    },
    {
      "name": "BLK2GO_Adapter_textured:Body5polySurface6_aiStandardSurface1_0",
      "primitives": [
        {
          "attributes": {
            "NORMAL": 29,
            "POSITION": 28,
            "TEXCOORD_0": 30
          },
          "indices": 31,
          "material": 1,
          "mode": 4
        }
      ]
    }
  ],
  "nodes": [
    {
      "children": [
        1
      ],
      "matrix": [
        1.9799505472183228,
        0.0,
        0.0,
        0.0,
        0.0,
        4.39637337028192e-16,
        -1.9799505472183228,
        0.0,
        0.0,
        1.9799505472183228,
        4.39637337028192e-16,
        0.0,
        0.0,
        0.0,
        0.0,
        1.0
      ],
      "name": "Sketchfab_model"
    },
    {
      "children": [
        2
      ],
      "matrix": [
        0.009999999776482582,
        0.0,
        0.0,
        0.0,
        0.0,
        0.0,
        0.009999999776482582,
        0.0,
        0.0,
        -0.009999999776482582,
        0.0,
        0.0,
        0.0,
        0.0,
        0.0,
        1.0
      ],
      "name": "78c0c68d9da44d7cb030f0efa85daaad.fbx"
    },
    {
      "children": [
        3
      ],
      "name": "Object_2"
    },
    {
      "children": [
        4,
        7
      ],
      "name": "RootNode"
    },
    {
      "children": [
        5,
        6
      ],
      "name": "BLK2GO1_pasted__Ring",
      "rotation": [
        6.123234262925839e-17,
        1.0,
        6.123234262925839e-17,
        6.123234262925839e-17
      ],
      "translation": [
        -1.862645149230957e-08,
        164.930908203125,
        -0.00047756382264196873
      ]
    },
    {
      "mesh": 0,
      "name": "BLK2GO1_pasted__Ring_standardSurface2_0"
    },
    {
      "mesh": 1,
      "name": "BLK2GO1_pasted__Ring_standardSurface2_0"
    },
    {
      "children": [
        8,
        10,
        12,
        14,
        16
      ],
      "name": "Adapter",
      "scale": [
        4.969287395477295,
        4.969287395477295,
        4.969287395477295
      ],
      "translation": [
        0.0,
        1.6279704570770264,
        0.0
      ]
    },
    {
      "children": [
        9
      ],
      "name": "BLK2GO_Adapter_textured:Body5"
    },
    {
      "mesh": 2,
      "name": "BLK2GO_Adapter_textured:Body5_aiStandardSurface1_0"
    },
    {
      "children": [
        11
      ],
      "name": "BLK2GO_Adapter_textured:Body5polySurface1"
    },
    {
      "mesh": 3,
      "name": "BLK2GO_Adapter_textured:Body5polySurface1_aiStandardSurface1_0"
    },
    {
      "children": [
        13
      ],
      "name": "BLK2GO_Adapter_textured:Body5polySurface4"
    },
    {
      "mesh": 4,
      "name": "BLK2GO_Adapter_textured:Body5polySurface4_aiStandardSurface1_0"
    },
    {
      "children": [
        15
      ],
      "name": "BLK2GO_Adapter_textured:Body5polySurface3"
    },
    {
      "mesh": 5,
      "name": "BLK2GO_Adapter_textured:Body5polySurface3_aiStandardSurface1_0"
    },
    {
      "children": [
        17,
        19
      ],
      "name": "group4",
      "rotation": [
        0.0,
        0.0,
        0.8662456274032593,
        -0.4996183514595032
      ],
      "translation": [
        2.4830000400543213,
        2.5187299251556396,
        0.8780410885810852
      ]
    },
    {
      "children": [
        18
      ],
      "name": "BLK2GO_Adapter_textured:Body5polySurface5",
      "rotation": [
        0.0,
        -0.0,
        -2.7755575615628914e-17,
        1.0
      ],
      "translation": [
        -2.4830000400543213,
        -2.5187299251556396,
        -0.8780410885810852
      ]
    },
    {
      "mesh": 6,
      "name": "BLK2GO_Adapter_textured:Body5polySurface5_aiStandardSurface1_0"
    },
    {
      "children": [
        20
      ],
      "name": "BLK2GO_Adapter_textured:Body5polySurface6",
      "rotation": [
        0.0,
        -0.0,
        -2.7755575615628914e-17,
        1.0
      ],
      "translation": [
        -5.463497638702393,
        -0.847944438457489,
        -0.8649930953979492
      ]
    },
    {
      "mesh": 7,
      "name": "BLK2GO_Adapter_textured:Body5polySurface6_aiStandardSurface1_0"
    }
  ],
  "scene": 0,
  "scenes": [
    {
      "name": "Sketchfab_Scene",
      "nodes": [
        0
      ]
    }
  ]
}
